<svg xmlns="http://www.w3.org/2000/svg" viewBox="30 170 370 80"><defs><style>.cls-1{isolation:isolate;}.cls-2{fill:#f2914a;}.cls-2,.cls-3,.cls-4,.cls-5{mix-blend-mode:multiply;}.cls-3{fill:#eb665b;}.cls-4,.cls-6{fill:#231d35;}.cls-4{opacity:0.4;}.cls-5{fill:#f2cd56;}</style></defs><g class="cls-1"><g id="Layer_1" data-name="Layer 1"><circle class="cls-2" cx="50.05" cy="236.27" r="14.05"/><circle class="cls-3" cx="68.4" cy="236.27" r="14.05"/><circle class="cls-4" cx="89.43" cy="236.27" r="14.05"/><circle class="cls-5" cx="110.47" cy="236.27" r="14.05"/><path class="cls-6" d="M181.54,216.11V183.28h21.34v5.36H188.16v8.06h13.42v5.22H188.16v8.82h15.48v5.37Z"/><path class="cls-6" d="M225.19,216.11V201.25c0-3.59-2-4.84-4.89-4.84a17.76,17.76,0,0,0-6,1.34v18.36h-6.24V191.9h5.28l.14,1.3a28.13,28.13,0,0,1,9-2,8.77,8.77,0,0,1,7,2.74c1.63,1.82,2,4,2,6.9v15.24Z"/><path class="cls-6" d="M251.56,215.39c-1.92,1.1-4.22,1.39-7.43,1.39a63.71,63.71,0,0,1-7.53-.43v-4.7a55.18,55.18,0,0,0,6.81.53,13.79,13.79,0,0,0,3.93-.43A2.27,2.27,0,0,0,249,209.4c0-1.39-.77-2.11-2.3-2.59-1.11-.38-2.16-.57-3.74-1-4.32-1.1-6.38-2.92-6.38-7a6.84,6.84,0,0,1,3.17-6.23c1.86-1.11,4.07-1.35,7.09-1.35a62.74,62.74,0,0,1,6.81.44v4.5a61.89,61.89,0,0,0-6.28-.48,11.82,11.82,0,0,0-3.36.38,2.15,2.15,0,0,0-1.53,2.21c0,1.25.67,1.87,2.11,2.35,1,.33,2.15.57,3.45.91,4.55,1,6.85,3,6.85,7.38A7.13,7.13,0,0,1,251.56,215.39Z"/><path class="cls-6" d="M269.82,216.78c-2.69,0-5.76-.57-7.91-2.78-2.3-2.39-3.17-5.89-3.17-10,0-3.88,1-7.76,3.65-10.16,2.15-1.87,4.79-2.59,8.29-2.59a11.86,11.86,0,0,1,8,2.5c3.06,2.63,3.25,6.37,3.25,11.64H265.07c.14,4.51,2.25,6.67,6.57,6.67a47.61,47.61,0,0,0,9.34-1.3v4.46A54.2,54.2,0,0,1,269.82,216.78Zm.52-21.57c-3.78,0-5,2.4-5.27,6.14h10.59C275.52,197.23,274.13,195.21,270.34,195.21Z"/><path class="cls-6" d="M320,216.11V201.25c0-3.59-1.92-4.84-4.79-4.84a17.58,17.58,0,0,0-5.9,1.39,10.88,10.88,0,0,1,.34,3.07v15.24h-6.19V201.25c0-3.59-2-4.84-4.79-4.84a15.92,15.92,0,0,0-5.56,1.29v18.41h-6.23V191.9h5.27l.14,1.3a26.22,26.22,0,0,1,8.63-2,8.7,8.7,0,0,1,6.52,2.45c3.26-1.2,6.9-2.45,10.07-2.45a8.69,8.69,0,0,1,6.76,2.74c1.58,1.82,2,4,2,6.9v15.24Z"/><path class="cls-6" d="M351.71,214.43c-2.07,1.63-4.65,2.35-8,2.35a17.68,17.68,0,0,1-7.05-1.48l-.14.81H332V181.69h6.24v11.22a26.68,26.68,0,0,1,7.76-1.68,9.25,9.25,0,0,1,6.76,2.59c2.25,2.3,3.12,5.71,3.12,10.16C355.88,208.73,354.25,212.42,351.71,214.43Zm-7.87-18a17.33,17.33,0,0,0-5.6,1.29v13.38a11.51,11.51,0,0,0,4.45,1c4.41,0,6.76-2.4,6.76-7.86S347.39,196.41,343.84,196.41Z"/><path class="cls-6" d="M360.72,216.8V181.68H367V216.8Z"/><path class="cls-6" d="M383.92,216.78c-2.68,0-5.75-.57-7.91-2.78-2.3-2.39-3.16-5.89-3.16-10,0-3.88,1-7.76,3.64-10.16,2.16-1.87,4.79-2.59,8.29-2.59a11.83,11.83,0,0,1,8,2.5c3.07,2.63,3.26,6.37,3.26,11.64H379.18c.14,4.51,2.25,6.67,6.56,6.67a47.6,47.6,0,0,0,9.35-1.3v4.46A54.39,54.39,0,0,1,383.92,216.78Zm.53-21.57c-3.79,0-5,2.4-5.27,6.14h10.59C389.63,197.23,388.23,195.21,384.45,195.21Z"/><path class="cls-6" d="M176.6,183.28h4.94v5.14a27.22,27.22,0,0,0-4-.21"/><path class="cls-6" d="M59.3,215.32l-6.81-11.94a10.71,10.71,0,0,1-1.29.05H47.56v11.89H40.94V182.49H52.49c4.46,0,8.06.47,10.55,2.73,2.06,1.87,2.83,4.46,2.83,7.72,0,3.06-.82,5.84-2.93,7.66a8,8,0,0,1-3.54,1.92L67,215.32Zm-7.14-27.66h-4.6V198.5h4.65c5,0,6.9-1.73,6.9-5.42C59.11,189,56.62,187.66,52.16,187.66Z"/><path class="cls-6" d="M80.93,216c-2.69,0-5.76-.57-7.91-2.78-2.3-2.39-3.17-5.89-3.17-10,0-3.88,1-7.76,3.65-10.16,2.15-1.87,4.79-2.59,8.29-2.59a11.86,11.86,0,0,1,8,2.5c3.06,2.63,3.25,6.37,3.25,11.64H76.18c.14,4.51,2.25,6.67,6.57,6.67a47.61,47.61,0,0,0,9.34-1.3v4.46A54.2,54.2,0,0,1,80.93,216Zm.52-21.57c-3.78,0-5,2.4-5.27,6.14H86.77C86.63,196.43,85.24,194.42,81.45,194.42Z"/><path class="cls-6" d="M113.62,215.32l-.14-1.29c-3.17,1.05-5.8,2-8.87,2a8.23,8.23,0,0,1-5.7-2,7.16,7.16,0,0,1-2.35-5.76,6.92,6.92,0,0,1,3.5-6.42c1.87-1,3.78-1.2,6.37-1.2,1.68,0,4.08.15,6.23.34v-.82c0-3.64-2.44-5.18-6.29-5.4a10.8,10.8,0,0,0-6.41,2.14l-.43-4.47a14.56,14.56,0,0,1,7.67-2c3.5,0,7.33,1,9.57,4,1.33,1.76,1.74,3.05,1.74,6.45l.39,14.45Zm-1-10.35a47.41,47.41,0,0,0-5.17-.29c-3.6,0-4.89,1.25-4.89,3.4s1.39,3.5,3.93,3.5a22.08,22.08,0,0,0,6.13-1.2Z"/><path class="cls-6" d="M133.86,216a9.79,9.79,0,0,1-7.24-2.78c-2.3-2.39-3.17-5.85-3.17-10,0-3.88,1.11-6.05,4.13-8.45,2.39-1.87,5.22-2.3,8.53-2.3a58.3,58.3,0,0,1,6.23.43v4.84a50,50,0,0,0-5.32-.33c-5.18,0-7.16,1.62-7.19,5.86,0,4.7,1.82,7.81,6.09,7.81a29.33,29.33,0,0,0,6.8-1.24v4.65A34.63,34.63,0,0,1,133.86,216Z"/><path class="cls-6" d="M150.05,191.11l0-7.33h6.26v6.92h6.9v5.11h-6.9v8.73a14.53,14.53,0,0,0,.43,4.31A3,3,0,0,0,160,211.1a22.56,22.56,0,0,0,3.5-.48v4.51a27.65,27.65,0,0,1-5.61.86c-2.49,0-5.08-.72-6.47-3.45a15,15,0,0,1-1.34-7v-9.68"/><path class="cls-6" d="M36,182.49h4.94v5.14a27.22,27.22,0,0,0-4-.21"/><path class="cls-6" d="M145.12,190.7h4.94v5.14a28.63,28.63,0,0,0-4-.2"/></g></g></svg>